<svg width="42" height="50" viewBox="0 0 42 50" fill="none" xmlns="http://www.w3.org/2000/svg">
<path fill-rule="evenodd" clip-rule="evenodd" d="M6.01884 5.96845L6.01883 5.96844C5.97893 5.94632 5.93857 5.92394 5.89434 5.89445H5.90267C5.90541 5.8899 5.90874 5.88504 5.91228 5.87989L5.91229 5.87987C5.91953 5.86932 5.92763 5.85751 5.93323 5.84445C5.94434 5.84029 5.95615 5.83682 5.96795 5.83334L5.96797 5.83334C5.97977 5.82987 5.99157 5.8264 6.00267 5.82223C6.06797 5.86887 6.09066 5.91802 6.11452 5.96967C6.12618 5.99492 6.13812 6.02078 6.15545 6.04723C8.61934 7.59445 9.99712 6.7639 10.961 4.60557C11.0943 4.29446 11.2221 3.95834 11.3471 3.60001C12.4856 0.256237 15.1639 0.215536 17.7544 0.176172C18.5834 0.163575 19.4034 0.151114 20.161 0.0305659C21.9888 -0.255545 21.4055 1.44723 20.6138 2.26668C20.3525 2.54064 20.0453 2.7713 19.7273 3.01018C18.9263 3.61175 18.0558 4.26549 17.6721 5.79445C18.4109 5.79445 19.118 5.79908 19.8036 5.80356C21.3091 5.8134 22.71 5.82256 24.111 5.78057C26.7305 5.70279 27.1749 6.65557 25.7305 8.77501C25.4141 9.24218 25.1582 9.75279 24.9028 10.2623L24.9028 10.2623C24.5842 10.898 24.2665 11.532 23.8332 12.0778C22.3193 13.9722 22.3527 15.2667 24.836 16.15C25.461 16.3722 26.2666 16.9278 26.4249 17.4917C27.1787 20.1628 28.9834 22.1701 30.7828 24.1715C32.7764 26.3889 34.7637 28.5991 35.3082 31.6972C35.3336 31.8398 35.3509 31.9718 35.3667 32.0927C35.4534 32.754 35.4966 33.0833 36.5721 32.9917C38.4055 32.8195 40.5749 32.7972 41.086 35.1361C41.5777 37.3667 39.986 38.7861 38.2832 39.9639C38.0513 40.1224 37.8745 40.3548 37.6771 40.6144L37.677 40.6145L37.677 40.6146C37.5907 40.728 37.5004 40.8467 37.3999 40.9667C37.557 41.652 38.1509 41.6702 38.7069 41.6872C39.2619 41.7042 39.7791 41.72 39.786 42.3972C39.7971 43.525 38.5888 44.05 37.7527 44.3083C33.4888 45.6333 28.9971 46.0833 24.6249 45.9945C22.291 45.9429 20.2481 46.6889 18.2162 47.4308C16.7416 47.9692 15.2727 48.5055 13.7027 48.7333C13.4728 48.7677 13.247 48.819 13.0168 48.8714C12.1848 49.0609 11.295 49.2634 9.94156 48.7195C11.5465 48.1366 12.6067 46.9549 13.6747 45.7646C15.2686 43.9882 16.8798 42.1925 20.3443 42.3389C19.7378 42.0869 19.2507 41.8814 18.8416 41.7087L18.8386 41.7075L18.8384 41.7074L18.8383 41.7074L18.8383 41.7074C18.0407 41.3708 17.5396 41.1594 17.0277 40.9722C14.6971 40.1306 14.386 38.4945 16.1249 36.6C17.1055 35.5361 17.7832 34.3945 15.561 33.9333C14.3394 33.6816 14.6309 33.1589 14.9541 32.5794C15.1873 32.1613 15.437 31.7136 15.1471 31.3167C14.7749 30.8056 15.9971 30.6611 16.7027 30.75C18.7916 31.0195 21.7443 31.3806 20.9332 28.3278C20.8673 28.0811 20.8049 27.8031 20.7383 27.5068L20.7383 27.5065L20.7383 27.5064C20.2772 25.454 19.6181 22.5197 16.2443 22.9639C12.5888 23.4445 11.4416 22.5389 13.7277 19.2222C13.2627 19.0142 12.6193 19.2545 12.0026 19.4849C10.8326 19.922 9.75844 20.3233 10.1805 17.5583C10.2055 17.3833 9.86101 16.9639 9.79156 16.9833C9.52581 17.0675 9.25423 17.3309 8.98428 17.5927L8.98427 17.5927C8.39926 18.1601 7.82185 18.7201 7.32767 17.4333C6.97507 16.516 7.5718 16.2735 8.27224 15.9888C8.98439 15.6993 9.80375 15.3662 9.84156 14.2361C9.78643 14.0572 9.37519 14.0532 8.93251 14.0489C8.19316 14.0417 7.36609 14.0336 7.96379 13.2083C9.95335 10.4633 8.43119 9.30962 6.72814 8.0189L6.72809 8.01886L6.72793 8.01873C6.55262 7.88587 6.3754 7.75155 6.1999 7.6139C5.9697 7.43464 6.05352 7.16439 6.14315 6.87539C6.18547 6.73894 6.22909 6.59832 6.24156 6.46112C6.24156 6.45696 6.24018 6.4514 6.23879 6.44585L6.23879 6.44584C6.2374 6.44029 6.23601 6.43473 6.23601 6.43057C6.24434 6.30001 6.23045 6.16668 6.1499 6.04723C6.10391 6.01561 6.06163 5.99217 6.01884 5.96845L6.01884 5.96845ZM1.47767 26.1861C0.916563 26.0945 0.277674 25.5056 0.338785 24.6583C0.461008 23.1028 5.20267 19.9333 7.30823 20.0583C9.24736 20.1651 9.87271 21.4829 10.4605 22.7216C10.6987 23.2236 10.9307 23.7127 11.2416 24.1028C11.1499 25.9361 10.0416 26.9722 8.8499 26.9778C6.50989 27.0069 4.15224 26.6223 1.82259 26.2423L1.47767 26.1861ZM8.19156 0.877788C5.56656 1.57779 4.05267 2.97223 4.23879 5.79168C2.48041 5.96463 2.99047 6.67977 3.46057 7.33888C3.53408 7.44194 3.60661 7.54364 3.66934 7.64168C3.80506 7.33292 4.04127 7.04282 4.28497 6.74352L4.28497 6.74352C4.44031 6.55274 4.59868 6.35824 4.73601 6.15279C4.89016 6.1129 5.04473 6.07218 5.19939 6.03144L5.19958 6.03138C5.4434 5.96715 5.68744 5.90285 5.93045 5.84168C6.16723 5.31966 6.57432 4.87828 6.98722 4.43059C7.82888 3.51801 8.69473 2.57922 8.19156 0.877788ZM3.5749 8.42501C3.99712 8.27779 3.88323 7.98334 3.66656 7.64168C3.55823 7.88057 3.49434 8.13057 3.5749 8.42501Z" fill="#0E8784"/>
</svg>
