<svg width="121" height="24" viewBox="0 0 121 24" fill="none" xmlns="http://www.w3.org/2000/svg">
<path d="M22.7751 0H1.4251C0.693098 0 0.100098 0.593 0.100098 1.325V22.676C0.100098 23.407 0.693098 24 1.4251 24H12.9201V14.706H9.7921V11.084H12.9201V8.413C12.9201 5.313 14.8131 3.625 17.5791 3.625C18.9041 3.625 20.0421 3.724 20.3741 3.768V7.008L18.4561 7.009C16.9521 7.009 16.6611 7.724 16.6611 8.772V11.085H20.2481L19.7811 14.707H16.6611V24H22.7771C23.5071 24 24.1001 23.407 24.1001 22.675V1.325C24.1001 0.593 23.5071 0 22.7751 0Z" fill="#FEFCF7"/>
<path fill-rule="evenodd" clip-rule="evenodd" d="M108.1 0C104.841 0 104.433 0.014 103.153 0.072C98.7951 0.272 96.3731 2.69 96.1731 7.052C96.1141 8.333 96.1001 8.741 96.1001 12C96.1001 15.259 96.1141 15.668 96.1721 16.948C96.3721 21.306 98.7901 23.728 103.152 23.928C104.433 23.986 104.841 24 108.1 24C111.359 24 111.768 23.986 113.048 23.928C117.402 23.728 119.83 21.31 120.027 16.948C120.086 15.668 120.1 15.259 120.1 12C120.1 8.741 120.086 8.333 120.028 7.053C119.832 2.699 117.411 0.273 113.049 0.073C111.768 0.014 111.359 0 108.1 0ZM108.1 2.163C111.304 2.163 111.684 2.175 112.95 2.233C116.202 2.381 117.721 3.924 117.869 7.152C117.927 8.417 117.938 8.797 117.938 12.001C117.938 15.206 117.926 15.585 117.869 16.85C117.72 20.075 116.205 21.621 112.95 21.769C111.684 21.827 111.306 21.839 108.1 21.839C104.896 21.839 104.516 21.827 103.251 21.769C99.9911 21.62 98.4801 20.07 98.3321 16.849C98.2741 15.584 98.2621 15.205 98.2621 12C98.2621 8.796 98.2751 8.417 98.3321 7.151C98.4811 3.924 99.9961 2.38 103.251 2.232C104.517 2.175 104.896 2.163 108.1 2.163ZM101.938 12C101.938 8.597 104.697 5.838 108.1 5.838C111.503 5.838 114.262 8.597 114.262 12C114.262 15.404 111.503 18.163 108.1 18.163C104.697 18.163 101.938 15.403 101.938 12ZM108.1 16C105.891 16 104.1 14.21 104.1 12C104.1 9.791 105.891 8 108.1 8C110.309 8 112.1 9.791 112.1 12C112.1 14.21 110.309 16 108.1 16ZM113.065 5.595C113.065 4.8 113.71 4.155 114.506 4.155C115.301 4.155 115.945 4.8 115.945 5.595C115.945 6.39 115.301 7.035 114.506 7.035C113.71 7.035 113.065 6.39 113.065 5.595Z" fill="#FEFCF7"/>
<path d="M72.1001 4.55705C71.2171 4.94905 70.2681 5.21305 69.2721 5.33205C70.2891 4.72305 71.0701 3.75805 71.4371 2.60805C70.4861 3.17205 69.4321 3.58205 68.3101 3.80305C67.4131 2.84605 66.1321 2.24805 64.7161 2.24805C61.5371 2.24805 59.2011 5.21405 59.9191 8.29305C55.8281 8.08805 52.2001 6.12805 49.7711 3.14905C48.4811 5.36205 49.1021 8.25705 51.2941 9.72305C50.4881 9.69705 49.7281 9.47605 49.0651 9.10705C49.0111 11.388 50.6461 13.522 53.0141 13.997C52.3211 14.185 51.5621 14.229 50.7901 14.081C51.4161 16.037 53.2341 17.46 55.3901 17.5C53.3201 19.123 50.7121 19.848 48.1001 19.54C50.2791 20.937 52.8681 21.752 55.6481 21.752C64.7901 21.752 69.9551 14.031 69.6431 7.10605C70.6051 6.41105 71.4401 5.54405 72.1001 4.55705Z" fill="#FEFCF7"/>
</svg>
